<svg width="35" height="35" viewBox="0 0 35 35" fill="none" xmlns="http://www.w3.org/2000/svg">
<path d="M31.9378 29.5247L25.5059 23.0928C27.0544 21.0313 27.8903 18.522 27.8875 15.9438C27.8875 9.35801 22.5295 4 15.9438 4C9.35801 4 4 9.35801 4 15.9438C4 22.5295 9.35801 27.8875 15.9438 27.8875C18.522 27.8903 21.0313 27.0544 23.0928 25.5059L29.5247 31.9378C29.8503 32.2288 30.2749 32.3842 30.7115 32.372C31.148 32.3598 31.5633 32.1809 31.8721 31.8721C32.1809 31.5633 32.3598 31.148 32.372 30.7115C32.3842 30.2749 32.2288 29.8503 31.9378 29.5247ZM7.4125 15.9438C7.4125 14.2564 7.91285 12.607 8.85027 11.204C9.7877 9.80108 11.1201 8.70761 12.679 8.0619C14.2379 7.41619 15.9532 7.24725 17.6081 7.57643C19.263 7.90561 20.7831 8.71813 21.9763 9.91124C23.1694 11.1044 23.9819 12.6245 24.3111 14.2794C24.6403 15.9343 24.4713 17.6496 23.8256 19.2085C23.1799 20.7674 22.0864 22.0998 20.6835 23.0372C19.2805 23.9746 17.6311 24.475 15.9438 24.475C13.682 24.4723 11.5136 23.5726 9.91424 21.9733C8.31491 20.3739 7.41521 18.2055 7.4125 15.9438Z" fill="#004876"/>
</svg>
