<svg width="30" height="30" viewBox="0 0 30 30" fill="none" xmlns="http://www.w3.org/2000/svg">
<path d="M23.4375 17.8125L26.25 20.625L23.4375 23.4375M23.4375 6.5625L26.25 9.375L23.4375 12.1875M3.75 20.625H8.7416C9.51323 20.625 10.2729 20.4345 10.9533 20.0704C11.6336 19.7063 12.2135 19.1799 12.6416 18.5379L15 15" stroke="#333333" stroke-width="3" stroke-linecap="round" stroke-linejoin="round"/>
<path d="M3.75 9.375H8.7416C9.51323 9.37501 10.2729 9.56552 10.9533 9.9296C11.6336 10.2937 12.2135 10.8201 12.6416 11.4621L17.3584 18.5379C17.7865 19.1799 18.3664 19.7063 19.0467 20.0704C19.7271 20.4345 20.4868 20.625 21.2584 20.625H24.375M24.375 9.375H21.2584C20.4868 9.37501 19.7271 9.56552 19.0467 9.9296C18.3664 10.2937 17.7865 10.8201 17.3584 11.4621L16.875 12.1875" stroke="#333333" stroke-width="3" stroke-linecap="round" stroke-linejoin="round"/>
</svg>
