<svg width="16" height="19" viewBox="0 0 16 19" fill="none" xmlns="http://www.w3.org/2000/svg">
<path d="M15.2 0C14.9878 0 14.7843 0.0834077 14.6343 0.231874C14.4843 0.38034 14.4 0.581704 14.4 0.791667V7.54211L2.7615 0.648672C2.49268 0.486857 2.18488 0.399467 1.87026 0.395637C1.55564 0.391807 1.24576 0.471678 0.973 0.626901C0.373 0.963359 0 1.61451 0 2.32552V16.6745C0 17.3855 0.373 18.0366 0.973 18.3731C1.24582 18.5282 1.55572 18.608 1.87033 18.604C2.18494 18.6001 2.49271 18.5127 2.7615 18.3508L14.4 11.4579V18.2083C14.4 18.4183 14.4843 18.6197 14.6343 18.7681C14.7843 18.9166 14.9878 19 15.2 19C15.4122 19 15.6157 18.9166 15.7657 18.7681C15.9157 18.6197 16 18.4183 16 18.2083V0.791667C16 0.581704 15.9157 0.38034 15.7657 0.231874C15.6157 0.0834077 15.4122 0 15.2 0Z" fill="#6E7077"/>
</svg>
