<svg width="16" height="19" viewBox="0 0 16 19" fill="none" xmlns="http://www.w3.org/2000/svg">
<path d="M0.8 0C1.01217 0 1.21566 0.0834077 1.36569 0.231874C1.51571 0.38034 1.6 0.581704 1.6 0.791667V7.54211L13.2385 0.648672C13.5073 0.486857 13.8151 0.399467 14.1297 0.395637C14.4444 0.391807 14.7542 0.471678 15.027 0.626901C15.627 0.963359 16 1.61648 16 2.32552V16.6745C16 17.3855 15.627 18.0366 15.027 18.3731C14.7542 18.5282 14.4443 18.608 14.1297 18.604C13.8151 18.6001 13.5073 18.5127 13.2385 18.3508L1.6 11.4579V18.2083C1.6 18.4183 1.51571 18.6197 1.36569 18.7681C1.21566 18.9166 1.01217 19 0.8 19C0.587827 19 0.384344 18.9166 0.234315 18.7681C0.0842856 18.6197 0 18.4183 0 18.2083V0.791667C0 0.581704 0.0842856 0.38034 0.234315 0.231874C0.384344 0.0834077 0.587827 0 0.8 0Z" fill="#6E7077"/>
</svg>
