<svg width="22" height="25" viewBox="0 0 22 25" fill="none" xmlns="http://www.w3.org/2000/svg">
<path d="M2.54135 25C2.11918 24.9992 1.70449 24.8899 1.33806 24.6827C0.512946 24.2208 0 23.3241 0 22.3506V2.64956C0 1.67335 0.512946 0.779328 1.33806 0.317374C1.71322 0.104356 2.1394 -0.00518885 2.57206 0.000188883C3.00472 0.00556662 3.42798 0.12567 3.79759 0.347945L20.8397 10.4267C21.1948 10.6467 21.4876 10.9523 21.6906 11.3147C21.8935 11.6771 22 12.0845 22 12.4987C22 12.9129 21.8935 13.3203 21.6906 13.6827C21.4876 14.0451 21.1948 14.3507 20.8397 14.5707L3.79484 24.6522C3.41659 24.8781 2.98335 24.9983 2.54135 25Z" fill="#333333"/>
</svg>
